<svg xmlns="http://www.w3.org/2000/svg" xmlns:xlink="http://www.w3.org/1999/xlink" width="70" height="70" viewBox="0 0 70 70">
  <defs>
    <clipPath id="clip-Integration_Testing">
      <rect width="70" height="70"/>
    </clipPath>
  </defs>
  <g id="Integration_Testing" data-name="Integration Testing" clip-path="url(#clip-Integration_Testing)">
    <g id="analysis_2_" data-name="analysis (2)" transform="translate(2.78 1)">
      <path id="Path_28850" data-name="Path 28850" d="M13,60.293a1.139,1.139,0,0,0,1.138,1.138h14.8V54.6h2.277v6.831h2.277V50.047H35.77V61.432h2.277V54.6h2.277v6.831H42.6V50.047h2.277V61.432h1.138a1.139,1.139,0,0,0,1.139-1.138V25H13ZM28.939,50.047H22.108V47.77h6.831ZM22.108,37.523h.163l.01-.068a7.876,7.876,0,0,1,15.594,0l.009.068h.163a3.415,3.415,0,0,1,0,6.831H22.108a3.415,3.415,0,0,1,0-6.831ZM15.277,47.77h4.554v2.277H15.277Zm0,4.554H26.662V54.6H15.277Z" transform="translate(1.8 3.462)" fill="#fff"/>
      <path id="Path_28851" data-name="Path 28851" d="M46.016,17H14.138A1.14,1.14,0,0,0,13,18.138v5.692h2.277V19.277h2.277v4.554h2.277V19.277h2.277v4.554h2.277V19.277h2.277v4.554H47.155V18.138A1.14,1.14,0,0,0,46.016,17Z" transform="translate(1.8 2.354)" fill="#fff"/>
      <path id="Path_28852" data-name="Path 28852" d="M57.819,39.736l-1.548-.895a3.74,3.74,0,0,1,1.865-6.963h1.79V25.047H58.136a3.74,3.74,0,0,1-1.866-6.963l1.548-.895L54.4,11.273l-1.554.9a3.739,3.739,0,0,1-5.1-5.095l.9-1.555L42.736,2.106l-.895,1.548a3.7,3.7,0,0,1-4.165,1.721,3.72,3.72,0,0,1-2.8-3.587V0H28.047V1.786A3.706,3.706,0,0,1,25.3,5.362a3.739,3.739,0,0,1-4.223-1.718l-.888-1.538L14.275,5.522l.9,1.554a3.738,3.738,0,0,1-5.095,5.095l-1.555-.9L5.106,17.189l1.548.895a3.74,3.74,0,0,1-1.866,6.963H3v6.831H4.789a3.74,3.74,0,0,1,1.866,6.963l-1.548.895L8.522,45.65l1.554-.9a3.663,3.663,0,0,1,2.032-.483V20.493a3.42,3.42,0,0,1,3.415-3.415H47.4a3.42,3.42,0,0,1,3.415,3.415V44.281a3.665,3.665,0,0,1,2.032.474l1.554.9ZM25.77,12.523H23.493V10.246H25.77Zm6.831,0H30.324V10.246H32.6Zm6.831,0H37.155V10.246h2.277Z" transform="translate(0.415 0)" fill="#fff"/>
      <path id="Path_28853" data-name="Path 28853" d="M0,48.692H2.277V61.216H6.831V48.692H9.108L4.554,43Z" transform="translate(0 5.955)" fill="#fff"/>
      <path id="Path_28854" data-name="Path 28854" d="M54.831,53.523V41H50.277V53.523H48l4.554,5.692,4.554-5.692Z" transform="translate(6.648 5.678)" fill="#fff"/>
    </g>
  </g>
</svg>
